<?xml version="1.0" standalone="no"?>
<!DOCTYPE svg PUBLIC "-//W3C//DTD SVG 20010904//EN"
 "http://www.w3.org/TR/2001/REC-SVG-20010904/DTD/svg10.dtd">
<svg version="1.0" xmlns="http://www.w3.org/2000/svg"
 width="479.000000pt" height="479.000000pt" viewBox="0 0 479.000000 479.000000"
 preserveAspectRatio="xMidYMid meet">

<g transform="translate(0.000000,479.000000) scale(0.100000,-0.100000)"
fill="#000000" stroke="none">
<path d="M2155 4769 c-1079 -110 -1954 -943 -2120 -2020 -22 -147 -30 -418
-16 -569 53 -561 292 -1070 686 -1466 332 -333 721 -549 1165 -647 202 -45
273 -52 525 -52 295 0 429 18 680 91 384 112 727 320 1021 619 353 358 570
783 655 1280 26 154 36 468 20 626 -78 739 -489 1398 -1117 1789 -276 173
-575 283 -909 336 -120 18 -463 26 -590 13z m549 -269 c17 -16 -48 -180 -73
-181 -52 -2 -226 3 -229 6 -3 2 11 47 29 100 l34 96 115 -7 c63 -3 119 -10
124 -14z m-578 -62 c-14 -129 -17 -138 -42 -143 -13 -3 -36 -7 -50 -10 -25 -6
-26 -5 -20 30 7 37 5 39 -31 29 -17 -5 -23 -14 -23 -35 0 -22 -6 -32 -26 -39
-38 -15 -74 -12 -74 5 0 30 22 163 29 174 5 7 53 21 107 31 148 27 138 31 130
-42z m752 33 c51 -10 95 -20 97 -23 3 -3 3 -12 0 -20 -5 -12 -16 -13 -66 -5
-43 7 -63 7 -71 -1 -16 -16 -6 -23 48 -33 57 -11 62 -15 43 -33 -11 -12 -24
-12 -67 -4 -37 8 -56 8 -64 0 -17 -17 -1 -29 52 -36 33 -4 50 -11 50 -21 0
-24 -17 -26 -107 -10 -137 25 -130 14 -75 115 26 50 52 89 57 89 6 0 52 -8
103 -18z m-1033 -138 c-6 -25 -41 -45 -102 -58 -28 -6 -33 -4 -33 13 0 10 10
23 22 29 12 5 22 19 23 32 1 18 -2 21 -19 17 -12 -3 -26 -6 -32 -6 -7 0 -14
-33 -19 -84 -7 -83 -7 -85 -37 -95 -56 -20 -58 -18 -57 67 2 127 -3 121 134
157 l120 32 3 -40 c2 -22 1 -51 -3 -64z m1311 46 c63 -23 114 -46 114 -51 0
-6 -14 -28 -31 -49 -23 -29 -38 -39 -60 -39 -31 0 -109 28 -109 39 0 17 24 30
40 21 13 -7 22 -4 35 10 21 24 19 28 -22 36 -28 5 -34 1 -77 -55 -26 -34 -50
-61 -53 -61 -3 0 -23 5 -45 12 -26 8 -37 16 -34 25 9 23 110 152 120 152 5 1
60 -18 122 -40z m-1612 -109 c28 -122 29 -120 -78 -184 -52 -31 -99 -56 -104
-56 -15 0 -53 170 -43 188 10 18 193 131 203 126 3 -3 14 -35 22 -74z m1886
-20 c55 -28 100 -53 100 -57 0 -10 -102 -117 -124 -129 -17 -10 -37 -4 -123
39 -57 29 -103 56 -103 61 0 14 125 136 139 136 6 0 56 -23 111 -50z m-2150
-86 c7 -20 10 -48 7 -64 -5 -21 0 -33 19 -50 13 -13 24 -27 24 -31 0 -4 -16
-20 -36 -35 l-35 -27 -37 37 c-34 34 -35 38 -20 50 11 8 15 20 11 34 -7 27
-24 28 -47 3 -17 -18 -16 -23 9 -93 l26 -73 -33 -28 c-18 -15 -37 -26 -42 -24
-6 2 -24 45 -40 95 -30 91 -30 92 -11 106 11 8 56 41 100 75 43 34 82 61 86
61 4 0 13 -16 19 -36z m2414 -81 c53 -37 96 -71 96 -75 0 -16 -79 -60 -98 -54
-15 5 -22 0 -32 -24 -17 -42 -25 -45 -66 -20 -37 24 -38 33 -7 93 12 23 17 26
34 17 14 -8 24 -7 40 3 20 15 20 15 -7 36 -30 23 -20 27 -118 -47 l-40 -30
-38 25 c-21 14 -38 28 -38 32 1 12 155 120 167 116 6 -2 54 -34 107 -72z m207
-185 c43 -39 79 -75 79 -79 0 -19 -35 -18 -56 2 l-22 21 -72 -42 -72 -42 -35
35 -35 35 66 37 c36 20 66 40 66 45 0 4 -7 13 -15 20 -12 10 -13 16 -4 26 6 8
13 14 16 14 2 0 40 -32 84 -72z m-1189 -63 c35 -33 75 -75 91 -94 l27 -34 0
-419 c0 -343 -3 -424 -14 -446 -8 -15 -44 -56 -80 -92 -36 -35 -66 -69 -66
-75 0 -6 23 -33 51 -60 28 -28 64 -68 80 -89 l29 -39 0 -179 0 -178 42 0 41 0
-6 107 c-4 58 -7 326 -7 594 0 481 0 488 -20 494 -19 6 -20 13 -18 128 l3 122
55 3 c90 5 120 -9 204 -99 50 -54 77 -90 81 -112 3 -18 5 -318 3 -668 l-3
-636 -48 -56 c-27 -31 -69 -74 -94 -94 -44 -36 -50 -38 -137 -43 l-91 -5 -5
-66 c-3 -46 -11 -74 -25 -90 -50 -61 -123 -132 -147 -145 -22 -11 -100 -14
-428 -14 -220 0 -400 3 -400 8 0 4 16 43 35 87 29 67 35 92 35 153 l0 72 -217
0 c-120 0 -224 4 -232 9 -11 7 -10 18 6 62 11 30 25 83 31 119 11 62 21 574
23 1093 l1 248 -36 75 c-20 42 -36 82 -36 90 0 11 95 13 541 13 297 1 545 3
550 6 5 4 9 19 9 36 l0 29 -170 0 c-168 0 -171 0 -179 -22 -8 -23 -11 -23
-150 -20 l-141 3 0 48 c0 51 -23 129 -59 199 l-22 43 415 -3 414 -3 64 -60z
m-1888 -41 c7 -19 4 -25 -43 -83 l-36 -44 38 6 c20 4 52 10 71 13 29 5 37 2
51 -20 12 -17 14 -30 8 -39 -5 -6 -38 -48 -73 -91 -58 -72 -65 -77 -73 -58 -7
16 -3 29 24 61 18 23 30 43 28 45 -2 3 -26 0 -54 -6 -47 -10 -50 -9 -73 17
-13 16 -21 34 -17 43 7 19 128 171 136 171 4 1 10 -6 13 -15z m3210 -41 c13
-16 23 -32 22 -38 0 -5 -39 -27 -86 -48 l-84 -37 -36 36 c-19 20 -30 38 -25
40 6 3 44 20 85 38 41 19 81 35 88 35 7 1 24 -11 36 -26z m91 -124 c4 -13 -3
-27 -22 -44 l-28 -24 51 -1 c47 0 54 -3 79 -36 15 -19 25 -37 23 -40 -3 -2
-54 -7 -115 -11 l-109 -6 -33 42 c-18 23 -32 43 -30 45 2 2 35 31 73 64 65 58
71 61 88 46 9 -9 20 -25 23 -35z m-3379 -161 l26 -38 -58 -99 c-33 -55 -64
-100 -70 -101 -14 0 -124 132 -124 150 0 11 89 167 114 199 8 10 18 4 48 -30
21 -24 50 -61 64 -81z m3571 -153 c29 -54 50 -102 46 -106 -5 -4 -39 -12 -78
-18 -38 -7 -80 -15 -92 -18 -18 -4 -26 3 -42 36 -25 49 -26 51 -3 51 33 0 45
15 31 38 -11 18 -20 20 -49 16 -34 -6 -36 -4 -56 38 l-21 43 86 16 c47 8 95
13 105 9 11 -4 43 -50 73 -105z m-3734 -67 c26 -22 47 -48 47 -58 0 -21 -67
-200 -80 -214 -7 -7 -160 107 -160 119 0 6 72 190 82 208 9 17 11 18 36 1 15
-9 48 -35 75 -56z m-124 -249 c45 -29 81 -57 81 -63 0 -6 -5 -28 -11 -49 l-10
-38 -26 16 c-21 14 -27 15 -34 4 -16 -25 -9 -46 17 -58 24 -11 26 -15 20 -54
-4 -23 -10 -45 -14 -49 -7 -7 -155 82 -166 101 -8 13 47 241 58 241 3 0 41
-23 85 -51z m3973 -130 c20 -5 39 -17 42 -27 11 -37 38 -213 33 -218 -7 -7
-197 18 -197 25 -1 3 -5 26 -9 50 l-9 43 34 -5 c25 -4 34 -2 34 8 0 28 -13 45
-34 45 -34 0 -45 13 -52 59 l-7 44 64 -7 c35 -4 81 -11 101 -17z m-3957 -190
c8 -8 8 -89 0 -97 -2 -2 -17 4 -34 12 -44 23 -46 20 -11 -24 34 -43 33 -60 -5
-60 -38 0 -38 -17 0 -30 34 -11 35 -13 35 -61 0 -27 -3 -49 -7 -49 -5 0 -47
16 -95 37 l-88 37 0 41 c0 52 7 61 54 69 l39 7 -37 38 c-33 33 -36 42 -36 92
0 31 3 58 6 61 6 6 162 -58 179 -73z m3950 -80 c97 -24 90 -15 100 -151 6 -80
4 -88 -12 -88 -10 0 -23 4 -29 8 -14 9 -24 71 -12 78 13 8 9 41 -6 47 -7 3
-34 9 -60 12 l-46 7 6 -56 c6 -52 5 -56 -14 -56 -17 0 -21 8 -26 48 -6 47 -10
136 -7 160 1 16 8 16 106 -9z m-4045 -232 l85 -22 3 -47 c2 -27 -1 -48 -5 -48
-4 0 -48 11 -98 23 l-90 23 -3 47 c-4 55 -9 53 108 24z m4063 -29 l78 -33 -7
-105 c-3 -58 -8 -107 -10 -109 -2 -2 -15 -1 -29 3 -21 5 -25 12 -25 46 0 22 5
40 10 40 6 0 10 10 10 23 0 17 -11 27 -53 43 l-52 22 -7 -56 c-9 -63 -10 -65
-32 -56 -12 5 -15 15 -11 43 2 20 7 66 11 104 7 80 7 80 117 35z m-3956 -218
c7 -57 11 -106 9 -108 -6 -5 -168 29 -188 40 -13 6 -18 21 -18 50 l0 41 38 -7
c20 -3 54 -9 76 -13 l39 -6 -5 57 c-4 53 -3 57 16 54 18 -3 22 -14 33 -108z
m3920 -26 l85 -47 -6 -46 c-20 -144 -27 -169 -47 -164 -18 5 -19 11 -13 52 11
72 10 85 -8 89 -13 2 -18 -8 -23 -52 -8 -58 -10 -62 -34 -47 -11 7 -11 20 -3
67 11 63 9 74 -13 74 -9 0 -16 -16 -20 -43 -9 -57 -20 -76 -36 -60 -10 10 -10
30 0 95 14 97 21 128 28 128 3 0 43 -21 90 -46z m-3967 -104 c25 0 51 -4 58
-8 13 -9 84 -242 73 -243 -19 -2 -196 3 -198 5 -10 9 -71 242 -66 249 3 5 24
6 47 3 22 -4 61 -7 86 -6z m3856 -105 c3 -8 -1 -36 -10 -62 -9 -25 -14 -48
-12 -50 1 -2 24 9 50 23 43 24 50 25 73 13 14 -8 28 -19 30 -26 5 -12 -49
-185 -66 -211 -6 -10 -10 -10 -20 2 -11 13 -9 27 7 76 12 33 19 60 16 60 -2 0
-31 -13 -63 -30 -58 -29 -60 -29 -82 -12 l-22 18 33 100 c18 54 35 102 37 107
7 12 23 8 29 -8z m-3667 -267 c43 -107 47 -123 33 -132 -5 -3 -49 -8 -99 -12
l-90 -7 -11 29 c-5 16 -13 36 -17 45 -5 14 6 17 75 23 67 6 81 10 76 23 -3 8
-6 19 -6 25 0 7 -30 9 -86 6 l-85 -4 -15 34 c-24 58 -21 61 59 65 39 1 84 4
98 5 25 2 30 -5 68 -100z m3692 -90 c7 -13 -3 -43 -42 -120 -28 -57 -53 -105
-55 -107 -6 -6 -122 108 -135 131 -7 13 2 41 37 110 25 51 51 99 57 106 8 10
23 0 69 -45 33 -32 64 -66 69 -75z m-3560 -159 c47 -71 58 -93 48 -100 -21
-13 -22 -12 -54 36 -16 25 -33 45 -36 45 -4 0 -10 -24 -13 -54 -7 -52 -9 -56
-43 -67 -19 -6 -38 -7 -43 -3 -26 29 -118 179 -114 186 12 19 35 5 66 -42 18
-27 36 -50 40 -50 4 0 10 27 14 60 7 61 19 79 56 80 11 0 41 -34 79 -91z
m3423 -107 c4 -7 -21 -51 -70 -117 -42 -58 -78 -105 -80 -105 -12 0 -54 80
-54 102 0 22 -7 31 -36 43 -39 16 -39 16 9 72 l20 22 41 -21 c52 -26 50 -23
35 -46 -10 -17 -10 -23 0 -36 18 -22 26 -20 45 8 15 24 14 27 -29 85 -25 34
-45 66 -45 72 0 6 12 26 26 45 l26 34 52 -73 c29 -39 55 -78 60 -85z m-2676
111 c2 -12 -3 -32 -10 -45 -7 -13 -17 -41 -23 -63 -7 -26 -19 -44 -35 -52 -27
-14 -260 -19 -260 -5 0 4 15 49 32 100 l33 92 130 -2 c125 -3 130 -4 133 -25z
m323 5 c-8 -21 -15 -23 -97 -26 -113 -4 -138 -22 -31 -22 42 0 77 -3 77 -6 0
-3 -5 -14 -10 -25 -9 -16 -22 -19 -84 -19 -56 0 -75 -4 -80 -15 -4 -13 9 -15
84 -15 89 0 96 -3 84 -34 -5 -14 -28 -16 -145 -16 -76 0 -139 4 -139 9 0 7 19
59 59 164 l11 27 139 0 140 0 -8 -22z m319 13 c0 -36 -12 -41 -106 -41 -56 0
-94 -4 -94 -10 0 -6 29 -10 68 -10 42 0 75 -5 87 -14 17 -12 17 -17 5 -47 -24
-64 -38 -69 -176 -69 -128 0 -134 2 -114 41 9 16 23 19 103 21 l92 1 -78 7
c-50 4 -81 11 -87 20 -10 17 13 80 37 98 20 14 263 17 263 3z m290 3 c0 -25
-24 -44 -58 -44 l-37 0 -24 -75 -25 -75 -43 0 c-50 0 -51 3 -23 85 11 32 20
60 20 62 0 1 -20 3 -44 3 -41 0 -43 1 -38 25 l4 25 134 0 c74 0 134 -3 134 -6z
m403 -7 c16 -11 16 -16 -4 -77 -36 -107 -41 -110 -186 -110 -68 0 -123 4 -123
9 0 11 47 139 62 169 11 21 17 22 123 22 73 0 117 -4 128 -13z m305 6 c21 -5
23 -10 18 -36 -9 -44 -33 -77 -57 -77 l-20 0 20 -29 c30 -42 27 -51 -21 -51
-39 1 -46 5 -70 40 -35 51 -55 51 -75 0 -16 -39 -17 -40 -65 -40 -26 0 -48 2
-48 4 0 4 43 121 62 169 l10 27 112 0 c61 0 122 -3 134 -7z m152 0 c0 -5 -15
-50 -32 -100 l-33 -93 -42 0 c-24 0 -43 3 -43 8 0 4 13 41 28 82 16 41 32 83
35 93 5 12 17 17 47 17 22 0 40 -3 40 -7z m304 -36 c-2 -62 -26 -78 -127 -84
-85 -6 -85 -6 -94 -37 -8 -28 -13 -31 -56 -34 -26 -2 -47 1 -47 7 0 12 49 149
62 174 8 16 23 17 136 15 l127 -3 -1 -38z m366 -275 l43 -73 -34 -35 -34 -34
-52 87 -51 86 31 38 c36 43 28 48 97 -69z m-96 -72 c20 -43 36 -87 36 -97 0
-19 -167 -179 -177 -169 -13 13 -73 152 -73 170 0 17 153 174 171 176 3 0 23
-36 43 -80z m-2781 -41 c42 -39 77 -74 77 -79 0 -24 -34 -16 -69 15 -21 19
-41 35 -44 35 -3 0 -3 -18 0 -39 8 -56 -2 -86 -33 -100 -25 -11 -31 -7 -110
65 -46 42 -81 80 -78 85 11 19 41 7 79 -31 21 -22 42 -40 46 -40 4 0 4 30 1
67 -4 56 -2 68 13 80 11 7 24 13 29 13 6 0 46 -32 89 -71z m2550 -84 c4 -9 -9
-26 -38 -46 -24 -18 -42 -36 -39 -40 3 -5 25 -9 49 -9 34 0 47 -5 59 -22 31
-44 21 -60 -73 -126 -50 -34 -92 -62 -95 -62 -4 0 -6 9 -6 20 0 13 19 34 52
57 l52 38 -29 6 c-17 4 -47 7 -67 8 -37 1 -58 20 -58 54 0 13 164 137 181 137
4 0 9 -7 12 -15z m-2350 -73 c42 -30 77 -58 77 -61 0 -4 -36 -32 -80 -64 l-81
-58 -88 63 c-66 47 -86 66 -79 76 15 18 26 15 67 -16 52 -41 57 -43 70 -28 10
11 3 21 -34 47 -42 30 -45 35 -29 46 15 11 25 7 67 -23 42 -31 52 -34 64 -22
12 12 7 19 -32 47 -46 33 -54 46 -32 54 15 6 17 5 110 -61z m150 -87 c20 -10
37 -22 37 -25 0 -3 -14 -16 -31 -29 -40 -29 -33 -35 21 -16 61 21 63 20 56
-26 l-6 -40 33 25 34 26 42 -23 42 -24 -75 -67 c-81 -72 -90 -74 -139 -35 -22
17 -24 23 -16 52 13 47 13 47 -32 32 -57 -21 -73 -19 -121 11 l-42 27 74 68
c41 38 77 67 80 66 3 -1 22 -11 43 -22z m315 -146 c20 -8 22 -14 17 -46 -10
-60 -13 -64 -37 -58 -17 4 -27 0 -36 -16 -16 -25 -14 -27 24 -35 28 -5 34 -1
74 53 24 32 45 60 46 62 5 5 94 -20 94 -27 0 -6 -111 -152 -121 -158 -12 -7
-239 77 -239 90 0 20 58 76 79 76 16 0 21 6 21 24 0 57 8 61 78 35z m1338 -14
c6 -14 -10 -183 -17 -189 -2 -2 -23 -7 -47 -11 l-44 -7 8 82 7 82 -24 -7 c-32
-10 -30 -4 -40 -91 -6 -43 -11 -79 -12 -80 -1 -1 -24 -5 -51 -9 -40 -5 -48 -4
-43 8 3 8 9 51 13 96 3 45 12 85 18 89 9 5 181 46 219 51 4 1 10 -6 13 -14z
m-259 -92 c-4 -21 -9 -65 -13 -98 -4 -33 -12 -63 -18 -67 -6 -4 -27 -8 -48 -8
-31 0 -39 5 -59 38 l-23 37 -7 -44 c-5 -24 -10 -45 -11 -47 -2 -2 -23 -7 -46
-12 -42 -10 -42 -10 -42 19 0 15 5 62 11 103 11 71 12 74 41 80 50 10 56 8 82
-31 27 -38 32 -35 38 22 3 30 23 42 77 44 22 1 23 -2 18 -36z m-704 11 c37 -4
70 -10 72 -14 3 -5 -13 -47 -35 -94 -34 -76 -42 -86 -65 -86 -32 0 -219 21
-223 25 -4 4 66 156 80 173 9 10 25 12 58 8 25 -3 76 -8 113 -12z m431 -41
c-4 -16 -17 -59 -29 -98 l-21 -70 -48 -3 c-42 -3 -47 -1 -42 15 2 10 15 55 27
101 l22 82 49 0 c48 0 48 0 42 -27z m-114 10 c0 -5 -16 -48 -37 -97 l-37 -88
-105 7 c-58 4 -108 9 -110 11 -2 2 -1 10 3 19 5 13 18 16 67 14 44 -2 63 1 70
12 15 24 11 27 -46 34 -44 6 -55 11 -53 24 3 13 15 16 66 14 62 -3 63 -2 74
27 9 28 14 30 59 30 27 0 49 -3 49 -7z"/>
<path d="M2531 4429 c-7 -23 -15 -47 -18 -55 -4 -10 3 -14 25 -14 26 0 31 5
49 55 l21 55 -33 0 c-29 0 -33 -4 -44 -41z"/>
<path d="M1977 4433 c-4 -3 -7 -15 -7 -25 0 -30 54 -21 58 10 3 17 -1 22 -21
22 -13 0 -27 -3 -30 -7z"/>
<path d="M1423 4242 c-20 -16 -20 -21 -10 -69 11 -55 16 -60 47 -43 17 9 17
14 5 65 -7 31 -14 58 -16 60 -3 2 -14 -4 -26 -13z"/>
<path d="M3325 4190 c-21 -22 -37 -41 -34 -43 2 -3 13 -9 25 -15 18 -10 27 -5
64 33 40 41 41 44 22 54 -30 16 -34 15 -77 -29z"/>
<path d="M1817 3313 c-4 -3 -7 -271 -7 -595 l0 -588 289 0 c158 0 316 -3 350
-6 l61 -7 0 -113 c0 -102 -2 -114 -19 -124 -11 -5 -83 -10 -160 -10 l-141 0 0
-33 0 -32 173 3 c94 2 173 5 175 7 1 1 1 166 0 366 l-3 364 -168 -165 c-114
-112 -170 -174 -174 -192 l-5 -28 -138 0 c-134 0 -138 1 -144 23 -3 12 -6 273
-6 580 l0 557 -38 0 c-21 0 -42 -3 -45 -7z"/>
<path d="M2190 2950 c0 -203 3 -370 6 -370 13 0 309 295 327 325 15 25 17 57
17 222 l0 193 -175 0 -175 0 0 -370z"/>
<path d="M602 3450 c-11 -18 -8 -26 24 -66 29 -35 39 -42 50 -33 8 6 14 18 14
26 0 14 -58 93 -69 93 -4 0 -12 -9 -19 -20z"/>
<path d="M4233 3332 c-19 -3 -21 -6 -11 -28 12 -26 58 -35 58 -11 0 23 -24 43
-47 39z"/>
<path d="M468 3185 c-11 -25 -9 -29 28 -60 38 -34 64 -44 64 -26 0 5 2 16 5
24 4 8 -11 28 -39 51 l-46 37 -12 -26z"/>
<path d="M374 2904 c-7 -26 9 -47 31 -41 15 5 18 36 5 52 -18 22 -29 18 -36
-11z"/>
<path d="M4400 2757 c0 -23 16 -37 41 -37 6 0 9 12 7 28 -2 19 -9 28 -25 30
-19 3 -23 -1 -23 -21z"/>
<path d="M376 1873 c10 -41 16 -44 76 -41 l54 3 -8 33 c-6 23 -14 32 -29 32
-16 0 -19 -4 -14 -20 5 -16 2 -20 -15 -20 -13 0 -24 8 -27 20 -3 11 -14 20
-24 20 -16 0 -18 -5 -13 -27z"/>
<path d="M4159 1519 c-9 -18 -6 -26 27 -60 44 -45 49 -46 65 -18 9 18 6 26
-27 60 -44 45 -49 46 -65 18z"/>
<path d="M1317 1343 c-17 -16 -3 -23 43 -23 38 0 50 4 50 15 0 11 -11 15 -43
15 -24 0 -47 -3 -50 -7z"/>
<path d="M1290 1265 c0 -11 12 -15 44 -15 30 0 46 5 50 15 4 12 -4 15 -44 15
-38 0 -50 -4 -50 -15z"/>
<path d="M2659 1308 c-6 -24 -13 -46 -16 -50 -2 -5 14 -8 35 -8 37 0 41 3 56
40 22 56 21 60 -24 60 -38 0 -40 -2 -51 -42z"/>
<path d="M2977 1343 c-17 -16 -3 -24 40 -21 62 4 71 28 11 28 -25 0 -48 -3
-51 -7z"/>
<path d="M3417 1343 c-17 -16 -3 -24 40 -21 62 4 71 28 11 28 -25 0 -48 -3
-51 -7z"/>
<path d="M3750 965 c-11 -13 -9 -24 10 -65 24 -51 39 -60 59 -36 8 10 6 26
-10 65 -22 53 -37 62 -59 36z"/>
<path d="M2020 404 c-26 -59 -25 -64 5 -64 20 0 30 10 49 49 27 52 25 61 -10
61 -18 0 -28 -11 -44 -46z"/>
</g>
</svg>
