<?xml version="1.0" encoding="UTF-8"?>
<!DOCTYPE svg PUBLIC "-//W3C//DTD SVG 1.1//EN" "http://www.w3.org/Graphics/SVG/1.1/DTD/svg11.dtd">
<!-- Creator: CorelDRAW -->
<svg xmlns="http://www.w3.org/2000/svg" xml:space="preserve" width="120px" height="159px" version="1.1" style="shape-rendering:geometricPrecision; text-rendering:geometricPrecision; image-rendering:optimizeQuality; fill-rule:evenodd; clip-rule:evenodd"
viewBox="0 0 2.26 3"
 xmlns:xlink="http://www.w3.org/1999/xlink"
 xmlns:xodm="http://www.corel.com/coreldraw/odm/2003">
 <defs>
  <style type="text/css">
   <![CDATA[
    .fil0 {fill:#373435}
   ]]>
  </style>
 </defs>
 <g id="Capa_x0020_1">
  <metadata id="CorelCorpID_0Corel-Layer"/>
  <path class="fil0" d="M0.04 2.5c-0.01,0.01 -0.01,0.01 -0.02,0.02 0,0.01 0,0.01 0,0.02 -0.01,0.01 -0.02,0.02 -0.02,0.04 0.02,0.01 0.03,0.01 0.06,0.01l0.39 0c0.02,0 0.13,-0.01 0.14,0 0.01,0.01 0.01,0.17 0.01,0.19 0,0.01 0,0.01 -0.01,0.02 0,0.04 0,0.03 -0.02,0.07l-0.03 0.04c-0.01,0.02 -0.04,0.06 -0.04,0.08 0.01,0.01 0.14,0.01 0.17,0.01l0.56 0c0.06,0 0.13,0.01 0.18,0 0.03,0 0.06,-0.01 0.09,-0.01 0.05,0 0.04,0.01 0.07,-0.01 0.04,-0.03 0.06,-0.06 0.1,-0.1 0.02,-0.01 0.08,-0.08 0.09,-0.1 0.04,-0.03 0.01,-0.16 0.03,-0.19 0.01,-0.01 0.06,-0.01 0.08,-0.01 0.03,0 0.14,0.01 0.17,0 0.01,-0.01 0.04,-0.04 0.04,-0.05 0.02,-0.01 0.1,-0.1 0.12,-0.11 0.01,-0.02 0.05,-0.04 0.06,-0.08 0.01,-0.02 0,-0.38 0,-0.42 0,-0.04 0.01,-0.53 0,-0.55 0,-0.07 0,-0.27 0,-0.35 0,-0.05 0.01,-0.31 0,-0.35 -0.01,-0.04 -0.03,-0.07 -0.07,-0.1l-0.13 -0.13c-0.02,-0.02 -0.03,-0.02 -0.06,-0.02 -0.06,-0.01 -0.12,0 -0.17,0 -0.01,0.02 0,0.3 0,0.31l0.03 0 0.02 0.01 0 1.53c-0.02,0 -0.08,0 -0.1,0 -0.01,-0.11 0.01,-0.39 0,-0.46 -0.01,-0.03 -0.02,-0.05 -0.04,-0.07 -0.02,-0.02 -0.04,-0.04 -0.06,-0.06 -0.04,-0.03 -0.05,-0.04 -0.09,-0.08l-0.02 -0.02c0,-0.01 0,0 0,-0.01 0.01,-0.02 0.04,-0.04 0.05,-0.06l0.04 -0.05c0.02,-0.01 0.03,-0.02 0.05,-0.04 0.04,-0.04 0.07,-0.05 0.07,-0.12 0.01,-0.07 0,-0.28 0,-0.36l0 -0.56c0,-0.14 0.01,-0.14 -0.06,-0.21l-0.09 -0.09c-0.02,-0.02 -0.04,-0.03 -0.05,-0.05 -0.05,-0.04 -0.08,-0.03 -0.16,-0.03l-0.73 0c-0.06,0 -0.14,0 -0.19,0 0,0.06 0.06,0.11 0.08,0.16 0.04,0.09 0.01,0.16 0.01,0.2 0.05,0.01 0.14,0.01 0.19,0.01 0.04,0 0.15,0.01 0.18,0l0 -0.05c0.04,0 0.43,0 0.45,0 0.01,0.12 0.01,0.1 -0.08,0.1l-0.97 0c-0.12,0 -0.24,-0.01 -0.35,0l0 0 0.49 0 -0.49 0c0,0 0,0 0,0l0.01 0.03 0.01 0.03c0,0 0,0 0,0l-0.01 -0.02c0,0 0,-0.01 0,-0.01l0 0 -0.01 -0.01c0,-0.01 0.01,0 0,0 0,0.01 0.01,0.02 0.01,0.03 0.01,0.02 0.01,0.01 0.02,0.03 0.01,0.02 0.01,0.01 0.03,0.05 0,0.01 0.02,0.04 0.03,0.07 0.01,0.02 0,0.23 0,0.27 0,0.36 -0.01,1.03 -0.01,1.39l-0.05 0.22zm1.37 0.18l-0.44 0 0 -0.09c0.06,0 0.28,0 0.35,-0.01 0.03,0 0.04,0.01 0.05,-0.01 0,0 0,-0.01 0,-0.01 0,-0.01 0,-0.01 0,-0.02 0,-0.08 0,-0.18 0,-0.26 -0.01,-0.01 0,-0.01 -0.02,-0.01l-0.08 0c-0.04,0 -0.08,0 -0.12,0 -0.09,0 -0.66,0 -0.67,0 0,-0.01 0,0 0,-0.01l0 -0.37c0,-0.13 0,-0.26 0,-0.39 0,-0.25 -0.01,-0.51 0,-0.76 0,-0.01 0.04,-0.01 0.05,-0.01 0.02,0 0.05,0 0.06,0.01l0.02 1.48c0,0 0.22,0 0.26,0l0.07 0c0,0 0.01,0 0.01,0 0.02,0 0.01,-0.02 0.02,-0.05 0,-0.03 0,-0.02 0.02,-0.04 0.04,-0.04 0.08,-0.08 0.12,-0.11l0.06 -0.06c0.01,-0.02 0.04,-0.04 0.05,-0.06 0.03,-0.02 0.18,-0.16 0.18,-0.17 0.02,0 0.01,-0.01 0.01,0.01l0 0.94zm-1.4 -2.26l0 0.02 0 -0.02zm0.95 0.31l0.45 0.01c0,0.01 0,0.05 0,0.08l0 0.27c0,0.03 0.01,0.15 0,0.17 -0.01,0.01 -0.02,0.02 -0.02,0.03 -0.01,0.01 -0.01,0.01 -0.02,0.02l-0.22 0.22c-0.02,0.01 -0.04,0.03 -0.05,0.04 0,0.01 -0.01,0.01 -0.01,0.01 -0.03,0.03 -0.11,0.11 -0.13,0.12l0 -0.97z"/>
 </g>
</svg>
